<?xml version="1.0" standalone="no"?>
<!DOCTYPE svg PUBLIC "-//W3C//DTD SVG 20010904//EN"
 "http://www.w3.org/TR/2001/REC-SVG-20010904/DTD/svg10.dtd">
<svg version="1.0" xmlns="http://www.w3.org/2000/svg"
 width="718.000000pt" height="718.000000pt" viewBox="0 0 718.000000 718.000000"
 preserveAspectRatio="xMidYMid meet">
<metadata>
Created by potrace 1.14, written by Peter Selinger 2001-2017
</metadata>
<g transform="translate(0.000000,718.000000) scale(0.100000,-0.100000)"
fill="#000000" stroke="none">
<path d="M2570 5252 c-86 -11 -167 -45 -315 -132 -49 -29 -103 -60 -120 -70
-16 -9 -72 -41 -123 -71 -52 -30 -118 -67 -147 -84 -29 -16 -134 -77 -234
-135 -99 -58 -189 -109 -199 -115 -9 -5 -70 -40 -134 -77 -65 -38 -122 -68
-127 -68 -5 0 -11 -4 -13 -8 -1 -4 -41 -29 -88 -56 -47 -27 -98 -56 -115 -66
-16 -9 -138 -79 -270 -155 -367 -210 -393 -230 -464 -358 -124 -218 -88 -483
88 -657 48 -48 105 -88 209 -148 79 -45 148 -82 153 -82 5 0 9 -4 9 -10 0 -5
5 -10 10 -10 6 0 40 -18 76 -40 36 -22 70 -40 74 -40 4 0 13 -7 20 -15 7 -8
21 -15 30 -15 10 0 20 -4 22 -8 2 -4 73 -48 158 -96 85 -49 171 -98 190 -111
30 -19 91 -54 234 -135 182 -103 517 -296 538 -311 15 -10 29 -19 32 -19 2 0
39 -20 80 -45 42 -25 79 -45 81 -45 3 0 24 -12 48 -27 157 -102 327 -146 453
-119 16 4 38 8 49 10 34 7 108 38 150 64 201 124 304 369 250 596 -14 60 -59
161 -82 184 -7 7 -13 17 -13 21 0 23 -121 120 -225 182 -64 38 -119 69 -121
69 -3 0 -251 144 -274 160 -8 6 -22 13 -30 17 -8 3 -47 26 -87 50 -39 24 -74
43 -77 43 -3 0 -35 18 -73 41 -37 22 -75 45 -83 49 -8 5 -50 29 -94 54 -43 26
-83 46 -87 46 -5 0 -9 3 -9 8 0 4 -23 18 -51 32 -28 14 -53 28 -55 32 -2 3 71
50 163 103 93 53 175 100 183 105 41 26 171 100 175 100 3 0 29 16 59 35 30
19 57 35 60 35 2 0 51 27 108 61 57 34 159 93 228 132 116 65 231 141 238 158
2 4 16 20 31 37 39 40 77 107 102 178 26 75 36 216 19 281 -6 26 -13 56 -15
65 -2 10 -16 41 -30 70 -76 151 -210 259 -370 297 -52 12 -151 19 -195 13z"/>
<path d="M4480 5248 c-30 -5 -62 -11 -70 -14 -8 -3 -15 -5 -15 -4 0 6 -90 -39
-131 -65 -83 -53 -151 -131 -194 -220 -105 -217 -66 -457 100 -625 52 -53 102
-87 245 -169 204 -118 217 -125 300 -171 33 -19 62 -36 65 -39 5 -6 22 -16
112 -66 50 -28 319 -183 387 -223 31 -18 64 -35 74 -39 9 -3 17 -10 17 -15 0
-5 5 -6 10 -3 6 3 10 2 10 -3 0 -5 -30 -26 -67 -48 -37 -21 -76 -44 -87 -51
-12 -7 -28 -15 -36 -19 -8 -4 -43 -25 -78 -46 -34 -21 -65 -38 -67 -38 -3 0
-24 -11 -46 -26 -22 -14 -55 -33 -72 -43 -18 -10 -105 -60 -195 -112 -89 -52
-177 -102 -195 -113 -18 -10 -79 -45 -137 -78 -157 -89 -220 -135 -269 -196
-84 -102 -129 -226 -129 -353 1 -262 178 -481 436 -539 57 -13 161 -16 208 -6
16 4 39 8 51 11 26 4 175 73 183 83 3 4 14 12 25 18 23 12 91 50 150 84 22 12
78 45 125 73 47 27 103 60 125 72 22 12 128 73 235 135 107 62 215 124 240
138 25 14 158 90 295 170 138 80 261 152 275 159 14 8 50 28 81 46 31 18 127
73 214 122 122 70 174 106 230 160 39 39 77 81 83 95 7 14 22 42 33 63 32 61
50 147 50 232 -1 89 0 87 -24 167 -38 126 -137 246 -265 321 -35 20 -67 37
-73 37 -5 0 -9 5 -9 10 0 6 -4 10 -10 10 -5 0 -33 14 -62 31 -51 31 -82 48
-150 87 -36 21 -288 166 -495 285 -151 88 -171 99 -273 157 -41 23 -83 49 -92
58 -10 8 -18 12 -18 7 0 -4 -6 -3 -12 3 -14 11 -289 172 -348 204 -19 10 -48
27 -65 38 -16 11 -37 23 -45 26 -8 4 -68 39 -134 77 -154 90 -220 122 -281
136 -67 15 -148 19 -215 9z"/>
</g>
</svg>
